<mxfile host="app.diagrams.net" modified="2021-08-12T07:04:48.152Z" agent="5.0 (Macintosh; Intel Mac OS X 10_15_7) AppleWebKit/537.36 (KHTML, like Gecko) Chrome/92.0.4515.131 Safari/537.36" etag="U9vw4S2_m6zFe-iWhDHh" version="14.9.6" type="github">
  <diagram id="SQK_iS7NubJ-UlspPShi" name="Page-1">
    <mxGraphModel dx="1528" dy="1488" grid="0" gridSize="10" guides="1" tooltips="1" connect="1" arrows="1" fold="1" page="0" pageScale="1" pageWidth="827" pageHeight="1169" background="none" math="0" shadow="1">
      <root>
        <mxCell id="0" />
        <mxCell id="1" parent="0" />
        <mxCell id="taTUPynsXKpivhQrRoup-1" value="MySQL DB" style="verticalLabelPosition=bottom;html=1;verticalAlign=top;align=center;strokeColor=none;fillColor=#00BEF2;shape=mxgraph.azure.mysql_database;fontSize=25;movableLabel=1;" vertex="1" parent="1">
          <mxGeometry x="559" y="-565" width="72.5" height="96" as="geometry">
            <mxPoint x="5" y="-150" as="offset" />
          </mxGeometry>
        </mxCell>
        <mxCell id="taTUPynsXKpivhQrRoup-4" style="edgeStyle=orthogonalEdgeStyle;rounded=0;orthogonalLoop=1;jettySize=auto;html=1;entryX=0;entryY=0.5;entryDx=0;entryDy=0;entryPerimeter=0;exitX=0.998;exitY=0.388;exitDx=0;exitDy=0;exitPerimeter=0;" edge="1" parent="1" source="taTUPynsXKpivhQrRoup-12" target="taTUPynsXKpivhQrRoup-1">
          <mxGeometry relative="1" as="geometry">
            <mxPoint x="453" y="-522" as="sourcePoint" />
          </mxGeometry>
        </mxCell>
        <mxCell id="taTUPynsXKpivhQrRoup-20" style="edgeStyle=orthogonalEdgeStyle;rounded=0;orthogonalLoop=1;jettySize=auto;html=1;entryX=0;entryY=0.5;entryDx=0;entryDy=0;fontSize=25;fontColor=#1A1A1A;" edge="1" parent="1" source="taTUPynsXKpivhQrRoup-12" target="taTUPynsXKpivhQrRoup-17">
          <mxGeometry relative="1" as="geometry" />
        </mxCell>
        <mxCell id="taTUPynsXKpivhQrRoup-12" value="" style="shape=ext;double=1;whiteSpace=wrap;html=1;aspect=fixed;fontSize=25;fontColor=#1A1A1A;" vertex="1" parent="1">
          <mxGeometry x="86" y="-656" width="357" height="357" as="geometry" />
        </mxCell>
        <mxCell id="taTUPynsXKpivhQrRoup-2" value="&lt;font style=&quot;font-size: 25px;&quot;&gt;Node.JS&lt;/font&gt;" style="outlineConnect=0;dashed=0;verticalLabelPosition=bottom;verticalAlign=top;align=center;html=1;shape=mxgraph.aws3.android;movableLabel=1;fillColor=#60a917;strokeColor=#2D7600;labelBorderColor=none;fontColor=#1A1A1A;fontSize=25;" vertex="1" parent="1">
          <mxGeometry x="214" y="-575" width="101" height="106" as="geometry">
            <mxPoint x="-1" y="-159" as="offset" />
          </mxGeometry>
        </mxCell>
        <mxCell id="taTUPynsXKpivhQrRoup-11" value="" style="shape=ext;double=1;rounded=1;whiteSpace=wrap;html=1;fontColor=#1A1A1A;" vertex="1" parent="1">
          <mxGeometry x="93" y="-467" width="344" height="161" as="geometry" />
        </mxCell>
        <mxCell id="taTUPynsXKpivhQrRoup-15" style="edgeStyle=orthogonalEdgeStyle;rounded=0;orthogonalLoop=1;jettySize=auto;html=1;entryX=0;entryY=0.322;entryDx=0;entryDy=0;entryPerimeter=0;fontSize=25;fontColor=#1A1A1A;" edge="1" parent="1" source="taTUPynsXKpivhQrRoup-13" target="taTUPynsXKpivhQrRoup-12">
          <mxGeometry relative="1" as="geometry" />
        </mxCell>
        <mxCell id="taTUPynsXKpivhQrRoup-13" value="&lt;font style=&quot;font-size: 15px&quot;&gt;Request&lt;/font&gt;" style="html=1;fontSize=25;fontColor=#1A1A1A;" vertex="1" parent="1">
          <mxGeometry x="-58" y="-556" width="84" height="30" as="geometry" />
        </mxCell>
        <mxCell id="taTUPynsXKpivhQrRoup-14" value="" style="endArrow=block;html=1;rounded=0;align=center;verticalAlign=top;endFill=1;labelBackgroundColor=none;endSize=6;fontSize=25;fontColor=#1A1A1A;" edge="1" target="taTUPynsXKpivhQrRoup-13" parent="1">
          <mxGeometry relative="1" as="geometry">
            <mxPoint x="-142" y="-541" as="sourcePoint" />
          </mxGeometry>
        </mxCell>
        <mxCell id="taTUPynsXKpivhQrRoup-22" style="edgeStyle=orthogonalEdgeStyle;rounded=0;orthogonalLoop=1;jettySize=auto;html=1;fontSize=25;fontColor=#1A1A1A;" edge="1" parent="1" source="taTUPynsXKpivhQrRoup-17">
          <mxGeometry relative="1" as="geometry">
            <mxPoint x="-138" y="-477" as="targetPoint" />
          </mxGeometry>
        </mxCell>
        <mxCell id="taTUPynsXKpivhQrRoup-17" value="&lt;font style=&quot;font-size: 15px&quot;&gt;Respone&lt;/font&gt;" style="html=1;fontSize=25;fontColor=#1A1A1A;direction=west;" vertex="1" parent="1">
          <mxGeometry x="-58" y="-492.5" width="84" height="30" as="geometry" />
        </mxCell>
        <mxCell id="taTUPynsXKpivhQrRoup-21" value="User" style="verticalLabelPosition=bottom;html=1;verticalAlign=top;align=center;strokeColor=none;fillColor=#00BEF2;shape=mxgraph.azure.user;fontSize=25;fontColor=#1A1A1A;" vertex="1" parent="1">
          <mxGeometry x="-258" y="-556.5" width="88" height="94" as="geometry" />
        </mxCell>
        <mxCell id="taTUPynsXKpivhQrRoup-23" value="MPT Backend Architecture" style="text;html=1;strokeColor=none;fillColor=none;align=center;verticalAlign=middle;whiteSpace=wrap;rounded=0;fontSize=25;fontColor=#1A1A1A;" vertex="1" parent="1">
          <mxGeometry x="22" y="-712" width="470" height="20" as="geometry" />
        </mxCell>
        <mxCell id="taTUPynsXKpivhQrRoup-24" value="Express RestAPIs" style="text;html=1;strokeColor=none;fillColor=none;align=center;verticalAlign=middle;whiteSpace=wrap;rounded=0;fontSize=25;fontColor=#1A1A1A;labelBorderColor=#000000;spacingTop=0;" vertex="1" parent="1">
          <mxGeometry x="116" y="-460" width="131" height="144" as="geometry" />
        </mxCell>
        <mxCell id="taTUPynsXKpivhQrRoup-26" value="Sequelize ORM" style="text;html=1;strokeColor=none;fillColor=none;align=center;verticalAlign=middle;whiteSpace=wrap;rounded=0;fontSize=25;fontColor=#1A1A1A;labelBorderColor=#000000;" vertex="1" parent="1">
          <mxGeometry x="338" y="-398" width="26" height="20" as="geometry" />
        </mxCell>
        <mxCell id="taTUPynsXKpivhQrRoup-40" value="Table Data" style="swimlane;fontStyle=0;childLayout=stackLayout;horizontal=1;startSize=26;horizontalStack=0;resizeParent=1;resizeParentMax=0;resizeLast=0;collapsible=1;marginBottom=0;fontSize=25;fontColor=#1A1A1A;" vertex="1" parent="1">
          <mxGeometry x="531" y="-460" width="140" height="104" as="geometry" />
        </mxCell>
        <mxCell id="taTUPynsXKpivhQrRoup-41" value="Item 1" style="text;strokeColor=none;fillColor=none;align=left;verticalAlign=top;spacingLeft=4;spacingRight=4;overflow=hidden;rotatable=0;points=[[0,0.5],[1,0.5]];portConstraint=eastwest;" vertex="1" parent="taTUPynsXKpivhQrRoup-40">
          <mxGeometry y="26" width="140" height="26" as="geometry" />
        </mxCell>
        <mxCell id="taTUPynsXKpivhQrRoup-42" value="Item 2" style="text;strokeColor=none;fillColor=none;align=left;verticalAlign=top;spacingLeft=4;spacingRight=4;overflow=hidden;rotatable=0;points=[[0,0.5],[1,0.5]];portConstraint=eastwest;" vertex="1" parent="taTUPynsXKpivhQrRoup-40">
          <mxGeometry y="52" width="140" height="26" as="geometry" />
        </mxCell>
        <mxCell id="taTUPynsXKpivhQrRoup-43" value="Item 3" style="text;strokeColor=none;fillColor=none;align=left;verticalAlign=top;spacingLeft=4;spacingRight=4;overflow=hidden;rotatable=0;points=[[0,0.5],[1,0.5]];portConstraint=eastwest;" vertex="1" parent="taTUPynsXKpivhQrRoup-40">
          <mxGeometry y="78" width="140" height="26" as="geometry" />
        </mxCell>
      </root>
    </mxGraphModel>
  </diagram>
</mxfile>
